<svg width="22" height="18" viewBox="0 0 22 18" fill="none" xmlns="http://www.w3.org/2000/svg">
<path fill-rule="evenodd" clip-rule="evenodd" d="M13.7797 0.661637C14.4084 0.871214 14.7482 1.5508 14.5386 2.17953L9.73862 16.5795C9.52904 17.2083 8.84945 17.5481 8.22072 17.3385C7.59199 17.1289 7.2522 16.4493 7.46177 15.8206L12.2618 1.42058C12.4714 0.791852 13.1509 0.45206 13.7797 0.661637ZM5.84872 4.55153C6.31735 5.02016 6.31735 5.77996 5.84872 6.24858L3.09725 9.00006L5.84872 11.7515C6.31735 12.2202 6.31735 12.98 5.84872 13.4486C5.38009 13.9172 4.6203 13.9172 4.15167 13.4486L0.551667 9.84858C0.083038 9.37996 0.083038 8.62016 0.551667 8.15153L4.15167 4.55153C4.6203 4.0829 5.38009 4.0829 5.84872 4.55153ZM16.1517 4.55153C16.6203 4.0829 17.3801 4.0829 17.8487 4.55153L21.4487 8.15153C21.9174 8.62016 21.9174 9.37996 21.4487 9.84858L17.8487 13.4486C17.3801 13.9172 16.6203 13.9172 16.1517 13.4486C15.683 12.98 15.683 12.2202 16.1517 11.7515L18.9031 9.00006L16.1517 6.24858C15.683 5.77996 15.683 5.02016 16.1517 4.55153Z" fill="white"/>
</svg>
