<svg width="20" height="20" viewBox="0 0 20 20" fill="none" xmlns="http://www.w3.org/2000/svg">
<path fill-rule="evenodd" clip-rule="evenodd" d="M19.6 9.9999C19.6 15.3018 15.302 19.5999 10 19.5999C4.69809 19.5999 0.400024 15.3018 0.400024 9.9999C0.400024 4.69797 4.69809 0.399902 10 0.399902C15.302 0.399902 19.6 4.69797 19.6 9.9999ZM11.2 14.7999C11.2 15.4626 10.6628 15.9999 10 15.9999C9.33728 15.9999 8.80002 15.4626 8.80002 14.7999C8.80002 14.1372 9.33728 13.5999 10 13.5999C10.6628 13.5999 11.2 14.1372 11.2 14.7999ZM10 3.9999C9.33728 3.9999 8.80002 4.53716 8.80002 5.1999V9.9999C8.80002 10.6626 9.33728 11.1999 10 11.1999C10.6628 11.1999 11.2 10.6626 11.2 9.9999V5.1999C11.2 4.53716 10.6628 3.9999 10 3.9999Z" fill="white"/>
</svg>
